<?xml version="1.0" encoding="UTF-8" standalone="no"?>
<svg
   xmlns:dc="http://purl.org/dc/elements/1.1/"
   xmlns:cc="http://creativecommons.org/ns#"
   xmlns:rdf="http://www.w3.org/1999/02/22-rdf-syntax-ns#"
   xmlns:svg="http://www.w3.org/2000/svg"
   xmlns="http://www.w3.org/2000/svg"
   xmlns:sodipodi="http://sodipodi.sourceforge.net/DTD/sodipodi-0.dtd"
   xmlns:inkscape="http://www.inkscape.org/namespaces/inkscape"
   version="1.1"
   id="Layer_1"
   x="0px"
   y="0px"
   viewBox="0 0 129 15.4"
   style="enable-background:new 0 0 129 15.4;"
   xml:space="preserve"
   sodipodi:docname="vuestic.svg"
   inkscape:version="0.92.2 (5c3e80d, 2017-08-06)"><metadata
     id="metadata3747"><rdf:RDF><cc:Work
         rdf:about=""><dc:format>image/svg+xml</dc:format><dc:type
           rdf:resource="http://purl.org/dc/dcmitype/StillImage" /></cc:Work></rdf:RDF></metadata><defs
     id="defs3745" /><sodipodi:namedview
     pagecolor="#ffffff"
     bordercolor="#666666"
     borderopacity="1"
     objecttolerance="10"
     gridtolerance="10"
     guidetolerance="10"
     inkscape:pageopacity="0"
     inkscape:pageshadow="2"
     inkscape:window-width="1920"
     inkscape:window-height="1018"
     id="namedview3743"
     showgrid="false"
     inkscape:zoom="13.682171"
     inkscape:cx="64.5"
     inkscape:cy="7.6999998"
     inkscape:window-x="-8"
     inkscape:window-y="-8"
     inkscape:window-maximized="1"
     inkscape:current-layer="g3740" /><style
     type="text/css"
     id="style3724">
	.st0{fill:#4AE387;}
</style><g
     id="g3740"><path
       class="st0"
       d="m 37.318981,15.180737 h -3.7 l -2.9,-6.9 -2.9,6.9 h -3.7 l 6.4,-14.90000005 h 0.4 z"
       id="path3726"
       inkscape:connector-curvature="0"
       style="fill:#4ae387" /><path
       class="st0"
       d="m 45.347876,3.4538244 h -3.2 V 0.35382436 h 10 V 3.4538244 h -3.2 V 14.753824 h -3.6 z"
       id="path3734"
       inkscape:connector-curvature="0"
       style="fill:#4ae387" /><g
       id="g3806"
       transform="translate(-2.1195467,-0.07308782)"><path
         style="fill:#4ae387"
         inkscape:connector-curvature="0"
         id="path3738"
         d="m 67.764873,0.14617564 c 2.7,0 4.6,0.99999996 6.2,2.59999996 l -2.4,2.3 c -1,-1 -2.3,-1.6 -3.7,-1.6 -2.6,0 -4.2,1.9 -4.2,4.3 0,2.4000004 1.7,4.3000004 4.2,4.3000004 1.4,0 2.7,-0.6 3.7,-1.6 l 2.4,2.3 c -1.4,1.5 -3.4,2.6 -6.1,2.6 -4.6,0 -7.8,-3.4 -7.8,-7.7000004 0,-4.3 3.1,-7.49999996 7.7,-7.49999996 z"
         class="st0" /><path
         style="fill:#4ae387"
         inkscape:connector-curvature="0"
         id="path3738-1"
         d="m 68.171813,15.325779 c -2.7,0 -4.6,-1 -6.2,-2.6 l 2.4,-2.3 c 1,1 2.3,1.6 3.7,1.6 2.6,0 4.2,-1.9 4.2,-4.2999999 0,-2.4 -1.7,-4.3 -4.2,-4.3 -1.4,0 -2.7,0.6 -3.7,1.6 l -2.4,-2.3 c 1.4,-1.5 3.4,-2.60000001 6.1,-2.60000001 4.6,0 7.8,3.40000001 7.8,7.70000001 0,4.2999999 -3.1,7.4999999 -7.7,7.4999999 z"
         class="st0" /></g><g
       id="g3802"
       transform="translate(33.474221,20.756941)"><path
         style="fill:#4ae387"
         inkscape:connector-curvature="0"
         id="path3726-3"
         d="m 57.249859,-5.6542502 h -3.7 l -2.9,-6.8999998 -2.9,6.8999998 h -3.7 l 6.4,-14.8999998 h 0.4 z"
         class="st0" /><path
         style="fill:#4ae387"
         inkscape:connector-curvature="0"
         id="path3726-8"
         d="m 66.749859,-5.6542502 h -3.7 l -2.9,-6.8999998 -2.9,6.8999998 h -3.7 l 6.4,-14.8999998 h 0.4 z"
         class="st0" /></g></g></svg>